<svg width="535" height="195" viewBox="-5 -5 530 190" xmlns="http://www.w3.org/2000/svg">
  <g
    fill-rule="evenodd"
    fill="#343434"
    stroke="#343434"
    stroke-width="0.72pt"
  >
    <path
      d="M 257.101 1.001 L 259.801 1.001 A 1.156 1.156 0 0 1 260.173 1.056 Q 260.688 1.231 260.7 1.965 A 2.163 2.163 0 0 1 260.701 2.001 L 260.701 74.201 A 1.995 1.995 0 0 1 260.683 74.476 Q 260.663 74.615 260.623 74.727 A 0.78 0.78 0 0 1 260.501 74.951 Q 260.35 75.139 260.03 75.185 A 1.597 1.597 0 0 1 259.801 75.201 L 258.301 75.201 A 12.467 12.467 0 0 1 257.872 75.194 Q 257.532 75.182 257.251 75.151 Q 256.878 75.109 256.539 74.759 A 2.252 2.252 0 0 1 256.401 74.601 L 213.601 11.501 A 3.956 3.956 0 0 0 213.425 11.241 Q 213.037 10.719 212.751 10.801 A 0.419 0.419 0 0 0 212.476 11.051 Q 212.401 11.222 212.401 11.501 L 212.401 74.301 A 1.156 1.156 0 0 1 212.346 74.673 Q 212.17 75.188 211.437 75.2 A 2.163 2.163 0 0 1 211.401 75.201 L 208.901 75.201 A 1.156 1.156 0 0 1 208.528 75.146 Q 208.013 74.971 208.001 74.237 A 2.163 2.163 0 0 1 208.001 74.201 L 208.001 2.001 A 1.619 1.619 0 0 1 208.041 1.623 Q 208.162 1.118 208.652 1.023 A 1.301 1.301 0 0 1 208.901 1.001 L 210.701 1.001 Q 211.208 1.001 211.501 1.072 A 1.265 1.265 0 0 1 211.601 1.101 A 0.683 0.683 0 0 1 211.806 1.216 Q 211.972 1.347 212.138 1.601 A 3.011 3.011 0 0 1 212.201 1.701 L 254.901 64.701 A 2.263 2.263 0 0 0 255.07 64.913 Q 255.457 65.336 255.813 65.17 A 0.591 0.591 0 0 0 255.851 65.151 Q 256.152 64.983 256.252 64.748 A 0.628 0.628 0 0 0 256.301 64.501 L 256.301 1.901 A 1.474 1.474 0 0 1 256.336 1.561 Q 256.469 1.001 257.101 1.001 Z M 147.701 1.001 L 189.201 1.001 A 1.008 1.008 0 0 1 189.478 1.035 Q 189.788 1.124 189.871 1.442 A 1.031 1.031 0 0 1 189.901 1.701 L 189.901 4.301 Q 189.901 5.001 189.101 5.001 L 152.301 5.001 A 1.296 1.296 0 0 0 151.944 5.045 Q 151.545 5.16 151.439 5.567 A 1.326 1.326 0 0 0 151.401 5.901 L 151.401 35.001 Q 151.401 35.701 152.301 35.701 L 181.201 35.701 A 1.008 1.008 0 0 1 181.478 35.735 Q 181.788 35.824 181.871 36.142 A 1.031 1.031 0 0 1 181.901 36.401 L 181.901 39.001 Q 181.901 39.324 181.803 39.484 A 0.359 0.359 0 0 1 181.751 39.551 Q 181.601 39.7 181.104 39.701 A 2.365 2.365 0 0 1 181.101 39.701 L 152.301 39.701 A 1.296 1.296 0 0 0 151.944 39.745 Q 151.545 39.86 151.439 40.267 A 1.326 1.326 0 0 0 151.401 40.601 L 151.401 70.301 A 1.296 1.296 0 0 0 151.445 70.657 Q 151.56 71.056 151.967 71.162 A 1.326 1.326 0 0 0 152.301 71.201 L 190.601 71.201 A 1.33 1.33 0 0 1 190.902 71.232 Q 191.314 71.328 191.386 71.722 A 1.002 1.002 0 0 1 191.401 71.901 L 191.401 74.501 Q 191.401 74.824 191.303 74.984 A 0.359 0.359 0 0 1 191.251 75.051 Q 191.119 75.183 190.794 75.199 A 1.901 1.901 0 0 1 190.701 75.201 L 147.701 75.201 A 1.156 1.156 0 0 1 147.328 75.146 Q 146.813 74.971 146.801 74.237 A 2.163 2.163 0 0 1 146.801 74.201 L 146.801 2.001 A 1.619 1.619 0 0 1 146.841 1.623 Q 146.962 1.118 147.452 1.023 A 1.301 1.301 0 0 1 147.701 1.001 Z M 414.601 1.001 L 456.101 1.001 A 1.008 1.008 0 0 1 456.378 1.035 Q 456.688 1.124 456.771 1.442 A 1.031 1.031 0 0 1 456.801 1.701 L 456.801 4.301 Q 456.801 5.001 456.001 5.001 L 419.201 5.001 A 1.296 1.296 0 0 0 418.844 5.045 Q 418.445 5.16 418.339 5.567 A 1.326 1.326 0 0 0 418.301 5.901 L 418.301 35.001 Q 418.301 35.701 419.201 35.701 L 448.101 35.701 A 1.008 1.008 0 0 1 448.378 35.735 Q 448.688 35.824 448.771 36.142 A 1.031 1.031 0 0 1 448.801 36.401 L 448.801 39.001 Q 448.801 39.324 448.703 39.484 A 0.359 0.359 0 0 1 448.651 39.551 Q 448.501 39.7 448.004 39.701 A 2.365 2.365 0 0 1 448.001 39.701 L 419.201 39.701 A 1.296 1.296 0 0 0 418.844 39.745 Q 418.445 39.86 418.339 40.267 A 1.326 1.326 0 0 0 418.301 40.601 L 418.301 70.301 A 1.296 1.296 0 0 0 418.345 70.657 Q 418.46 71.056 418.867 71.162 A 1.326 1.326 0 0 0 419.201 71.201 L 457.501 71.201 A 1.33 1.33 0 0 1 457.802 71.232 Q 458.214 71.328 458.286 71.722 A 1.002 1.002 0 0 1 458.301 71.901 L 458.301 74.501 Q 458.301 74.824 458.203 74.984 A 0.359 0.359 0 0 1 458.151 75.051 Q 458.019 75.183 457.694 75.199 A 1.901 1.901 0 0 1 457.601 75.201 L 414.601 75.201 A 1.156 1.156 0 0 1 414.228 75.146 Q 413.713 74.971 413.701 74.237 A 2.163 2.163 0 0 1 413.701 74.201 L 413.701 2.001 A 1.619 1.619 0 0 1 413.741 1.623 Q 413.862 1.118 414.352 1.023 A 1.301 1.301 0 0 1 414.601 1.001 Z M 475.801 1.001 L 517.301 1.001 A 1.008 1.008 0 0 1 517.578 1.035 Q 517.888 1.124 517.971 1.442 A 1.031 1.031 0 0 1 518.001 1.701 L 518.001 4.301 Q 518.001 5.001 517.201 5.001 L 480.401 5.001 A 1.296 1.296 0 0 0 480.044 5.045 Q 479.645 5.16 479.539 5.567 A 1.326 1.326 0 0 0 479.501 5.901 L 479.501 35.001 Q 479.501 35.701 480.401 35.701 L 509.301 35.701 A 1.008 1.008 0 0 1 509.578 35.735 Q 509.888 35.824 509.971 36.142 A 1.031 1.031 0 0 1 510.001 36.401 L 510.001 39.001 Q 510.001 39.324 509.903 39.484 A 0.359 0.359 0 0 1 509.851 39.551 Q 509.701 39.7 509.204 39.701 A 2.365 2.365 0 0 1 509.201 39.701 L 480.401 39.701 A 1.296 1.296 0 0 0 480.044 39.745 Q 479.645 39.86 479.539 40.267 A 1.326 1.326 0 0 0 479.501 40.601 L 479.501 70.301 A 1.296 1.296 0 0 0 479.545 70.657 Q 479.66 71.056 480.067 71.162 A 1.326 1.326 0 0 0 480.401 71.201 L 518.701 71.201 A 1.33 1.33 0 0 1 519.002 71.232 Q 519.414 71.328 519.486 71.722 A 1.002 1.002 0 0 1 519.501 71.901 L 519.501 74.501 Q 519.501 74.824 519.403 74.984 A 0.359 0.359 0 0 1 519.351 75.051 Q 519.219 75.183 518.894 75.199 A 1.901 1.901 0 0 1 518.801 75.201 L 475.801 75.201 A 1.156 1.156 0 0 1 475.428 75.146 Q 474.913 74.971 474.901 74.237 A 2.163 2.163 0 0 1 474.901 74.201 L 474.901 2.001 A 1.619 1.619 0 0 1 474.941 1.623 Q 475.062 1.118 475.552 1.023 A 1.301 1.301 0 0 1 475.801 1.001 Z M 393.501 75.201 L 390.701 75.201 Q 390.118 75.201 389.674 74.577 A 2.925 2.925 0 0 1 389.501 74.301 L 375.301 40.701 A 1.406 1.406 0 0 0 374.5 39.917 Q 374.222 39.799 373.859 39.745 A 4.522 4.522 0 0 0 373.201 39.701 L 351.601 39.701 Q 350.901 39.701 350.651 40.001 Q 350.414 40.285 350.401 40.749 A 1.938 1.938 0 0 0 350.401 40.801 L 350.401 74.101 A 1.753 1.753 0 0 1 350.354 74.523 Q 350.217 75.073 349.674 75.177 A 1.463 1.463 0 0 1 349.401 75.201 L 346.801 75.201 A 2.245 2.245 0 0 1 346.533 75.186 Q 346.152 75.14 346.001 74.951 Q 345.801 74.701 345.801 74.301 L 345.801 2.001 A 1.619 1.619 0 0 1 345.841 1.623 Q 345.962 1.118 346.452 1.023 A 1.301 1.301 0 0 1 346.701 1.001 L 372.501 1.001 A 40.819 40.819 0 0 1 379.035 1.49 Q 382.487 2.051 385.268 3.254 A 18.986 18.986 0 0 1 389.301 5.601 Q 395.301 10.201 395.301 19.401 A 26.044 26.044 0 0 1 394.97 23.673 Q 394.578 26.026 393.723 27.953 A 14.158 14.158 0 0 1 392.951 29.451 A 18.961 18.961 0 0 1 389.943 33.325 A 16.063 16.063 0 0 1 387.101 35.551 A 27.702 27.702 0 0 1 382.944 37.663 A 22.903 22.903 0 0 1 380.101 38.601 A 0.875 0.875 0 0 0 379.917 38.65 Q 379.556 38.796 379.684 39.246 A 1.229 1.229 0 0 0 379.701 39.301 L 394.301 73.801 A 1.261 1.261 0 0 1 394.374 74.058 Q 394.431 74.392 394.276 74.703 A 1.236 1.236 0 0 1 394.251 74.751 A 0.948 0.948 0 0 1 394.044 75.012 Q 393.825 75.201 393.501 75.201 Z M 276.801 4.301 L 276.801 1.701 Q 276.801 1.378 276.898 1.218 A 0.359 0.359 0 0 1 276.951 1.151 Q 277.082 1.019 277.407 1.003 A 1.901 1.901 0 0 1 277.501 1.001 L 329.001 1.001 Q 329.324 1.001 329.484 1.099 A 0.359 0.359 0 0 1 329.551 1.151 Q 329.682 1.283 329.698 1.607 A 1.901 1.901 0 0 1 329.701 1.701 L 329.701 4.301 Q 329.701 5.001 328.901 5.001 L 307.601 5.001 A 1.619 1.619 0 0 0 307.223 5.041 Q 306.718 5.162 306.623 5.652 A 1.301 1.301 0 0 0 306.601 5.901 L 306.601 74.201 A 1.619 1.619 0 0 1 306.56 74.578 Q 306.439 75.083 305.949 75.179 A 1.301 1.301 0 0 1 305.701 75.201 L 303.001 75.201 Q 302.207 75.201 302.043 74.571 A 1.473 1.473 0 0 1 302.001 74.201 L 302.001 5.901 A 1.156 1.156 0 0 0 301.946 5.528 Q 301.77 5.013 301.037 5.001 A 2.163 2.163 0 0 0 301.001 5.001 L 277.601 5.001 A 1.33 1.33 0 0 1 277.299 4.97 Q 276.887 4.873 276.815 4.479 A 1.002 1.002 0 0 1 276.801 4.301 Z M 103.101 42.501 L 84.801 42.501 Q 84.001 42.501 84.001 43.401 L 84.001 74.301 A 2.007 2.007 0 0 1 84 74.315 Q 83.994 75.201 83.201 75.201 L 80.201 75.201 A 1.275 1.275 0 0 1 79.975 75.182 Q 79.74 75.14 79.601 75.001 Q 79.401 74.801 79.401 74.401 L 79.401 2.001 A 1.619 1.619 0 0 1 79.441 1.623 Q 79.562 1.118 80.052 1.023 A 1.301 1.301 0 0 1 80.301 1.001 L 102.501 1.001 A 50.581 50.581 0 0 1 109.418 1.451 A 36.856 36.856 0 0 1 116.301 3.051 A 21.1 21.1 0 0 1 121.724 5.777 A 17.753 17.753 0 0 1 125.701 9.651 A 16.117 16.117 0 0 1 128.328 15.222 Q 128.932 17.491 129.064 20.169 A 31.123 31.123 0 0 1 129.101 21.701 A 26.689 26.689 0 0 1 128.649 26.758 Q 127.87 30.79 125.751 33.701 Q 122.401 38.301 116.551 40.401 Q 110.701 42.501 103.101 42.501 Z M 22.126 75.318 A 34.428 34.428 0 0 0 30.101 76.201 A 35.809 35.809 0 0 0 35.75 75.771 A 27.002 27.002 0 0 0 46.251 71.851 Q 53.001 67.501 56.601 59.051 Q 58.794 53.902 59.651 47.323 A 69.953 69.953 0 0 0 60.201 38.301 Q 60.201 31.27 59.061 25.504 A 41.744 41.744 0 0 0 56.601 17.301 A 34.241 34.241 0 0 0 54.33 12.844 A 26.227 26.227 0 0 0 46.301 4.401 A 25.849 25.849 0 0 0 38.165 0.904 A 33.551 33.551 0 0 0 30.201 0.001 A 35.437 35.437 0 0 0 24.584 0.43 A 26.824 26.824 0 0 0 14.051 4.401 A 25.484 25.484 0 0 0 7.674 10.365 A 32.471 32.471 0 0 0 3.651 17.401 Q 0.001 26.001 0.001 38.501 A 78.431 78.431 0 0 0 0.076 41.992 Q 0.523 52.021 3.601 59.201 A 33.545 33.545 0 0 0 5.606 63.159 A 25.824 25.824 0 0 0 13.951 71.901 A 26.49 26.49 0 0 0 22.126 75.318 Z M 30.301 72.001 A 29.236 29.236 0 0 0 37.949 71.058 A 20.168 20.168 0 0 0 49.051 63.651 Q 55.278 55.462 55.398 38.953 A 89.698 89.698 0 0 0 55.401 38.301 A 73.745 73.745 0 0 0 54.89 29.318 Q 53.635 19.12 49.292 13.111 A 21.913 21.913 0 0 0 48.951 12.651 A 20.941 20.941 0 0 0 34.782 4.523 A 31.305 31.305 0 0 0 30.201 4.201 A 28.803 28.803 0 0 0 22.373 5.205 A 20.618 20.618 0 0 0 11.301 12.701 A 27.117 27.117 0 0 0 7.214 20.654 Q 5.951 24.436 5.349 29.094 A 72.02 72.02 0 0 0 4.801 38.301 Q 4.801 54.987 11.186 63.387 A 21.941 21.941 0 0 0 11.351 63.601 A 21.268 21.268 0 0 0 25.417 71.641 A 31.791 31.791 0 0 0 30.301 72.001 Z M 102.401 5.001 L 84.901 5.001 A 1.474 1.474 0 0 0 84.561 5.036 Q 84.001 5.17 84.001 5.801 L 84.001 37.501 A 2.115 2.115 0 0 0 84.027 37.853 Q 84.133 38.479 84.663 38.5 A 0.941 0.941 0 0 0 84.701 38.501 L 103.101 38.501 Q 112.701 38.501 118.501 34.551 Q 123.975 30.823 124.282 22.418 A 27.819 27.819 0 0 0 124.301 21.401 A 23.523 23.523 0 0 0 124.001 17.529 Q 123.65 15.428 122.887 13.732 A 11.631 11.631 0 0 0 121.651 11.601 A 13.415 13.415 0 0 0 116.41 7.382 A 17.699 17.699 0 0 0 114.101 6.501 Q 109.87 5.206 104.224 5.029 A 58.206 58.206 0 0 0 102.401 5.001 Z M 372.401 5.001 L 351.501 5.001 A 2.228 2.228 0 0 0 351.106 5.033 Q 350.401 5.16 350.401 5.801 L 350.401 34.801 Q 350.401 35.701 351.101 35.701 L 369.001 35.701 Q 379.158 35.701 384.539 32.457 A 14.611 14.611 0 0 0 385.101 32.101 A 11.513 11.513 0 0 0 389.862 25.309 Q 390.421 23.278 390.491 20.814 A 25.191 25.191 0 0 0 390.501 20.101 A 20.833 20.833 0 0 0 390.072 15.729 Q 389.502 13.075 388.173 11.095 A 11.063 11.063 0 0 0 386.001 8.701 A 14.131 14.131 0 0 0 381.585 6.305 Q 379.576 5.612 377.11 5.287 A 36.157 36.157 0 0 0 372.401 5.001 Z"
      vector-effect="non-scaling-stroke"
    />
  </g>
  <g
    fill-rule="evenodd"
    fill="#343434"
    stroke="#343434"
    stroke-width="0.79pt"
    transform="translate(0 110) scale(0.95)"
  >
    <path
      d="M 543.8 1.001 L 546.5 1.001 A 1.156 1.156 0 0 1 546.873 1.056 Q 547.388 1.231 547.4 1.965 A 2.163 2.163 0 0 1 547.4 2.001 L 547.4 74.201 A 1.995 1.995 0 0 1 547.382 74.476 Q 547.363 74.615 547.322 74.727 A 0.78 0.78 0 0 1 547.2 74.951 Q 547.05 75.139 546.729 75.185 A 1.597 1.597 0 0 1 546.5 75.201 L 545 75.201 A 12.467 12.467 0 0 1 544.571 75.194 Q 544.231 75.182 543.95 75.151 Q 543.577 75.109 543.239 74.759 A 2.252 2.252 0 0 1 543.1 74.601 L 500.3 11.501 A 3.956 3.956 0 0 0 500.124 11.241 Q 499.737 10.719 499.45 10.801 A 0.419 0.419 0 0 0 499.176 11.051 Q 499.1 11.222 499.1 11.501 L 499.1 74.301 A 1.156 1.156 0 0 1 499.045 74.673 Q 498.87 75.188 498.136 75.2 A 2.163 2.163 0 0 1 498.1 75.201 L 495.6 75.201 A 1.156 1.156 0 0 1 495.228 75.146 Q 494.713 74.971 494.7 74.237 A 2.163 2.163 0 0 1 494.7 74.201 L 494.7 2.001 A 1.619 1.619 0 0 1 494.74 1.623 Q 494.862 1.118 495.352 1.023 A 1.301 1.301 0 0 1 495.6 1.001 L 497.4 1.001 Q 497.907 1.001 498.2 1.072 A 1.265 1.265 0 0 1 498.3 1.101 A 0.683 0.683 0 0 1 498.506 1.216 Q 498.672 1.347 498.838 1.601 A 3.011 3.011 0 0 1 498.9 1.701 L 541.6 64.701 A 2.263 2.263 0 0 0 541.77 64.913 Q 542.157 65.336 542.513 65.17 A 0.591 0.591 0 0 0 542.55 65.151 Q 542.852 64.983 542.951 64.748 A 0.628 0.628 0 0 0 543 64.501 L 543 1.901 A 1.474 1.474 0 0 1 543.036 1.561 Q 543.169 1.001 543.8 1.001 Z M 0.9 1.001 L 42.4 1.001 A 1.008 1.008 0 0 1 42.677 1.035 Q 42.988 1.124 43.07 1.442 A 1.031 1.031 0 0 1 43.1 1.701 L 43.1 4.301 Q 43.1 5.001 42.3 5.001 L 5.5 5.001 A 1.296 1.296 0 0 0 5.144 5.045 Q 4.745 5.16 4.638 5.567 A 1.326 1.326 0 0 0 4.6 5.901 L 4.6 35.001 Q 4.6 35.701 5.5 35.701 L 34.4 35.701 A 1.008 1.008 0 0 1 34.677 35.735 Q 34.988 35.824 35.07 36.142 A 1.031 1.031 0 0 1 35.1 36.401 L 35.1 39.001 Q 35.1 39.324 35.002 39.484 A 0.359 0.359 0 0 1 34.95 39.551 Q 34.801 39.7 34.304 39.701 A 2.365 2.365 0 0 1 34.3 39.701 L 5.5 39.701 A 1.296 1.296 0 0 0 5.144 39.745 Q 4.745 39.86 4.638 40.267 A 1.326 1.326 0 0 0 4.6 40.601 L 4.6 70.301 A 1.296 1.296 0 0 0 4.645 70.657 Q 4.759 71.056 5.167 71.162 A 1.326 1.326 0 0 0 5.5 71.201 L 43.8 71.201 A 1.33 1.33 0 0 1 44.102 71.232 Q 44.514 71.328 44.585 71.722 A 1.002 1.002 0 0 1 44.6 71.901 L 44.6 74.501 Q 44.6 74.824 44.502 74.984 A 0.359 0.359 0 0 1 44.45 75.051 Q 44.318 75.183 43.994 75.199 A 1.901 1.901 0 0 1 43.9 75.201 L 0.9 75.201 A 1.156 1.156 0 0 1 0.528 75.146 Q 0.013 74.971 0 74.237 A 2.163 2.163 0 0 1 0 74.201 L 0 2.001 A 1.619 1.619 0 0 1 0.04 1.623 Q 0.162 1.118 0.652 1.023 A 1.301 1.301 0 0 1 0.9 1.001 Z M 130.5 50.701 L 130.5 2.101 A 2.228 2.228 0 0 1 130.532 1.706 Q 130.659 1.001 131.3 1.001 L 134.1 1.001 Q 134.894 1.001 135.057 1.63 A 1.473 1.473 0 0 1 135.1 2.001 L 135.1 52.601 Q 135.1 59.262 137.482 63.636 A 14.35 14.35 0 0 0 140.15 67.151 A 15.744 15.744 0 0 0 146.016 70.632 Q 149.981 72.001 155.4 72.001 Q 160.818 72.001 164.787 70.645 A 18.415 18.415 0 0 0 166.85 69.801 Q 171.4 67.601 173.65 63.251 Q 175.582 59.515 175.855 54.12 A 36.023 36.023 0 0 0 175.9 52.301 L 175.9 1.901 A 1.474 1.474 0 0 1 175.936 1.561 Q 176.069 1.001 176.7 1.001 L 179.1 1.001 Q 179.9 1.001 179.9 1.901 L 179.9 52.201 A 39.392 39.392 0 0 1 179.52 57.828 Q 179.085 60.839 178.152 63.36 A 21.187 21.187 0 0 1 177.2 65.551 Q 174.5 70.901 169 73.551 Q 164.346 75.793 157.687 76.138 A 48.096 48.096 0 0 1 155.2 76.201 Q 146.8 76.201 141.35 73.451 Q 135.9 70.701 133.2 65.051 A 25.209 25.209 0 0 1 131.354 59.523 Q 130.774 56.853 130.588 53.737 A 50.983 50.983 0 0 1 130.5 50.701 Z M 252.7 20.301 L 249.1 20.701 A 0.724 0.724 0 0 1 249.022 20.722 Q 248.783 20.773 248.653 20.605 A 0.409 0.409 0 0 1 248.65 20.601 Q 248.503 20.405 248.404 20.017 A 3.463 3.463 0 0 1 248.4 20.001 Q 246.7 12.901 241.15 8.551 A 20.412 20.412 0 0 0 229.233 4.23 A 25.709 25.709 0 0 0 228 4.201 A 27.047 27.047 0 0 0 220.053 5.306 A 20.444 20.444 0 0 0 209.35 12.951 A 28.905 28.905 0 0 0 205.174 21.372 Q 203.913 25.318 203.351 30.125 A 71.46 71.46 0 0 0 202.9 38.401 A 64.813 64.813 0 0 0 203.53 47.745 Q 204.916 57.235 209.35 63.251 Q 215.8 72.001 228.8 72.001 Q 236.6 72.001 241.7 68.251 A 20.09 20.09 0 0 0 246.243 63.509 Q 247.777 61.313 249.011 58.525 A 38.756 38.756 0 0 0 249.8 56.601 A 0.529 0.529 0 0 1 249.938 56.457 Q 250.091 56.35 250.315 56.384 A 0.893 0.893 0 0 1 250.4 56.401 L 253.8 57.401 Q 254 57.501 254.05 57.651 Q 254.1 57.801 254 58.101 Q 253 61.401 251.2 64.201 Q 249.4 67.001 247 69.201 Q 244.6 71.401 241.65 73.001 Q 238.7 74.601 235.35 75.401 Q 232 76.201 228.4 76.201 A 34.574 34.574 0 0 1 220.405 75.318 A 26.299 26.299 0 0 1 212 71.751 A 26.535 26.535 0 0 1 203.392 62.415 A 33.972 33.972 0 0 1 201.65 58.851 A 42.561 42.561 0 0 1 199.102 50.149 Q 198.1 44.776 198.1 38.401 A 69.216 69.216 0 0 1 198.686 29.147 Q 199.355 24.194 200.788 19.994 A 39.061 39.061 0 0 1 201.65 17.701 A 32.921 32.921 0 0 1 205.659 10.528 A 26.07 26.07 0 0 1 211.85 4.551 A 25.838 25.838 0 0 1 222.778 0.361 A 33.923 33.923 0 0 1 227.8 0.001 Q 232.4 0.001 236.75 1.601 Q 241.1 3.201 244.65 5.951 A 26.404 26.404 0 0 1 249.554 10.862 A 24.234 24.234 0 0 1 250.5 12.201 Q 252.8 15.701 253.2 19.601 A 2.151 2.151 0 0 1 253.226 19.72 Q 253.275 19.976 253.223 20.106 A 0.242 0.242 0 0 1 253.2 20.151 A 0.25 0.25 0 0 1 253.102 20.233 Q 253.008 20.281 252.848 20.295 A 1.692 1.692 0 0 1 252.7 20.301 Z M 263.1 74.301 L 289.6 2.101 A 2.558 2.558 0 0 1 289.74 1.76 Q 289.909 1.423 290.15 1.251 A 1.136 1.136 0 0 1 290.462 1.098 Q 290.763 1.001 291.2 1.001 L 294.5 1.001 Q 296 1.001 296.3 2.001 L 322.5 74.201 A 0.942 0.942 0 0 1 322.558 74.342 Q 322.647 74.628 322.483 74.859 A 0.705 0.705 0 0 1 322.45 74.901 Q 322.2 75.201 321.7 75.201 L 319.3 75.201 A 1.901 1.901 0 0 1 318.812 75.143 Q 318.219 74.985 318 74.401 L 309.9 52.101 Q 309.805 51.722 309.621 51.567 A 0.492 0.492 0 0 0 309.6 51.551 A 0.571 0.571 0 0 0 309.446 51.472 Q 309.244 51.401 308.9 51.401 L 276.7 51.401 A 1.076 1.076 0 0 0 276.232 51.499 Q 275.888 51.663 275.7 52.101 L 267.4 74.501 Q 267.3 74.901 267.05 75.051 Q 266.8 75.201 266.3 75.201 L 263.8 75.201 A 1.016 1.016 0 0 1 263.564 75.175 Q 263.382 75.132 263.259 75.015 A 0.632 0.632 0 0 1 263.2 74.951 Q 263.029 74.737 263.077 74.414 A 1.191 1.191 0 0 1 263.1 74.301 Z M 322.5 4.301 L 322.5 1.701 Q 322.5 1.378 322.598 1.218 A 0.359 0.359 0 0 1 322.65 1.151 Q 322.782 1.019 323.107 1.003 A 1.901 1.901 0 0 1 323.2 1.001 L 374.7 1.001 Q 375.023 1.001 375.183 1.099 A 0.359 0.359 0 0 1 375.25 1.151 Q 375.382 1.283 375.398 1.607 A 1.901 1.901 0 0 1 375.4 1.701 L 375.4 4.301 Q 375.4 5.001 374.6 5.001 L 353.3 5.001 A 1.619 1.619 0 0 0 352.923 5.041 Q 352.418 5.162 352.322 5.652 A 1.301 1.301 0 0 0 352.3 5.901 L 352.3 74.201 A 1.619 1.619 0 0 1 352.26 74.578 Q 352.139 75.083 351.649 75.179 A 1.301 1.301 0 0 1 351.4 75.201 L 348.7 75.201 Q 347.907 75.201 347.743 74.571 A 1.473 1.473 0 0 1 347.7 74.201 L 347.7 5.901 A 1.156 1.156 0 0 0 347.645 5.528 Q 347.47 5.013 346.736 5.001 A 2.163 2.163 0 0 0 346.7 5.001 L 323.3 5.001 A 1.33 1.33 0 0 1 322.998 4.97 Q 322.586 4.873 322.515 4.479 A 1.002 1.002 0 0 1 322.5 4.301 Z M 72.3 75.201 L 62.1 75.201 A 1.156 1.156 0 0 1 61.728 75.146 Q 61.213 74.971 61.2 74.237 A 2.163 2.163 0 0 1 61.2 74.201 L 61.2 2.001 Q 61.2 1.666 61.312 1.444 A 0.741 0.741 0 0 1 61.45 1.251 Q 61.657 1.044 62.036 1.008 A 1.759 1.759 0 0 1 62.2 1.001 L 63.95 1.001 A 131.037 131.037 0 0 1 65.596 1.012 Q 66.461 1.023 67.423 1.044 A 220.039 220.039 0 0 1 67.7 1.051 Q 69.8 1.101 71.55 1.101 L 73.7 1.101 A 81.263 81.263 0 0 1 82.581 1.619 Q 86.96 2.134 90.623 3.157 A 35.531 35.531 0 0 1 96.2 5.201 Q 104.7 9.201 108.55 17.151 A 35.171 35.171 0 0 1 111.182 24.92 Q 112.4 30.438 112.4 37.301 A 66.563 66.563 0 0 1 111.845 46.168 Q 110.855 53.52 108.1 58.901 Q 103.8 67.301 94.9 71.251 A 41.532 41.532 0 0 1 86.536 73.881 Q 80.22 75.201 72.3 75.201 Z M 437.425 75.318 A 34.428 34.428 0 0 0 445.4 76.201 A 35.809 35.809 0 0 0 451.05 75.771 A 27.002 27.002 0 0 0 461.55 71.851 Q 468.3 67.501 471.9 59.051 Q 474.094 53.902 474.951 47.323 A 69.953 69.953 0 0 0 475.5 38.301 Q 475.5 31.27 474.361 25.504 A 41.744 41.744 0 0 0 471.9 17.301 A 34.241 34.241 0 0 0 469.63 12.844 A 26.227 26.227 0 0 0 461.6 4.401 A 25.849 25.849 0 0 0 453.464 0.904 A 33.551 33.551 0 0 0 445.5 0.001 A 35.437 35.437 0 0 0 439.884 0.43 A 26.824 26.824 0 0 0 429.35 4.401 A 25.484 25.484 0 0 0 422.974 10.365 A 32.471 32.471 0 0 0 418.95 17.401 Q 415.3 26.001 415.3 38.501 A 78.431 78.431 0 0 0 415.376 41.992 Q 415.823 52.021 418.9 59.201 A 33.545 33.545 0 0 0 420.906 63.159 A 25.824 25.824 0 0 0 429.25 71.901 A 26.49 26.49 0 0 0 437.425 75.318 Z M 445.6 72.001 A 29.236 29.236 0 0 0 453.249 71.058 A 20.168 20.168 0 0 0 464.35 63.651 Q 470.578 55.462 470.698 38.953 A 89.698 89.698 0 0 0 470.7 38.301 A 73.745 73.745 0 0 0 470.19 29.318 Q 468.935 19.12 464.592 13.111 A 21.913 21.913 0 0 0 464.25 12.651 A 20.941 20.941 0 0 0 450.082 4.523 A 31.305 31.305 0 0 0 445.5 4.201 A 28.803 28.803 0 0 0 437.672 5.205 A 20.618 20.618 0 0 0 426.6 12.701 A 27.117 27.117 0 0 0 422.514 20.654 Q 421.25 24.436 420.648 29.094 A 72.02 72.02 0 0 0 420.1 38.301 Q 420.1 54.987 426.486 63.387 A 21.941 21.941 0 0 0 426.65 63.601 A 21.268 21.268 0 0 0 440.716 71.641 A 31.791 31.791 0 0 0 445.6 72.001 Z M 65.8 6.501 L 65.8 70.301 A 1.04 1.04 0 0 0 65.868 70.693 Q 66.074 71.201 66.9 71.201 L 71.9 71.201 A 83.713 83.713 0 0 0 79.997 70.834 Q 83.95 70.449 87.274 69.659 A 35.512 35.512 0 0 0 92.65 67.951 Q 100.5 64.701 104.05 57.401 A 31.109 31.109 0 0 0 106.315 50.837 Q 107.078 47.561 107.388 43.685 A 70.165 70.165 0 0 0 107.6 38.101 A 71.798 71.798 0 0 0 107.229 30.538 Q 106.408 22.813 103.772 17.892 A 21.459 21.459 0 0 0 103.75 17.851 Q 99.9 10.701 92.05 7.901 A 42.587 42.587 0 0 0 85.269 6.141 Q 79.474 5.101 72.1 5.101 L 66.8 5.101 A 0.993 0.993 0 0 0 66.318 5.211 Q 65.909 5.434 65.823 6.108 A 3.107 3.107 0 0 0 65.8 6.501 Z M 392.4 1.001 L 395.2 1.001 A 1.156 1.156 0 0 1 395.573 1.056 Q 396.088 1.231 396.1 1.965 A 2.163 2.163 0 0 1 396.1 2.001 L 396.1 74.001 Q 396.1 74.701 395.9 74.951 Q 395.7 75.201 394.9 75.201 L 392.6 75.201 A 3.84 3.84 0 0 1 392.318 75.191 Q 391.889 75.159 391.724 75.022 A 0.345 0.345 0 0 1 391.7 75.001 A 0.51 0.51 0 0 1 391.595 74.837 Q 391.526 74.674 391.507 74.412 A 2.967 2.967 0 0 1 391.5 74.201 L 391.5 2.001 A 1.619 1.619 0 0 1 391.54 1.623 Q 391.662 1.118 392.152 1.023 A 1.301 1.301 0 0 1 392.4 1.001 Z M 278.1 47.401 L 307.2 47.401 A 1.453 1.453 0 0 0 307.488 47.375 Q 308.111 47.248 307.928 46.502 A 2.058 2.058 0 0 0 307.9 46.401 L 293.6 7.401 A 5.514 5.514 0 0 0 293.452 7.061 Q 293.211 6.56 292.99 6.439 A 0.289 0.289 0 0 0 292.85 6.401 A 0.311 0.311 0 0 0 292.652 6.485 Q 292.389 6.706 292.1 7.501 L 277.6 46.601 Q 277.329 47.324 277.957 47.393 A 1.309 1.309 0 0 0 278.1 47.401 Z"
      vector-effect="non-scaling-stroke"
    />
  </g>
</svg>
